<?xml version="1.0" encoding="UTF-8" standalone="no"?>
<!DOCTYPE svg PUBLIC "-//W3C//DTD SVG 1.1//EN"
 "http://www.w3.org/Graphics/SVG/1.1/DTD/svg11.dtd">
<!-- Generated by graphviz version 2.47.3 (20210619.1520)
 -->
<!-- Title: dependencies Pages: 1 -->
<svg width="2536pt" height="247pt"
 viewBox="0.00 0.00 2536.00 246.80" xmlns="http://www.w3.org/2000/svg" xmlns:xlink="http://www.w3.org/1999/xlink">
<g id="graph0" class="graph" transform="scale(1 1) rotate(0) translate(4 242.8)">
<title>dependencies</title>
<polygon fill="white" stroke="transparent" points="-4,4 -4,-242.8 2532,-242.8 2532,4 -4,4"/>
<text text-anchor="middle" x="1264" y="-8.2" font-family="sans-serif" font-size="14.00">dependencies</text>
<g id="clust1" class="cluster">
<title>cluster_AppModule</title>
<polygon fill="none" stroke="black" stroke-dasharray="1,5" points="8,-32.8 8,-230.8 2520,-230.8 2520,-32.8 8,-32.8"/>
</g>
<g id="clust16" class="cluster">
<title>cluster_AppModule_imports</title>
<polygon fill="none" stroke="black" points="2368,-40.8 2368,-92.8 2512,-92.8 2512,-40.8 2368,-40.8"/>
</g>
<g id="clust18" class="cluster">
<title>cluster_AppModule_bootstrap</title>
<polygon fill="none" stroke="black" points="1292,-170.8 1292,-222.8 1416,-222.8 1416,-170.8 1292,-170.8"/>
</g>
<g id="clust2" class="cluster">
<title>cluster_AppModule_declarations</title>
<polygon fill="none" stroke="black" points="16,-40.8 16,-92.8 2360,-92.8 2360,-40.8 16,-40.8"/>
</g>
<!-- AppComponent -->
<g id="node1" class="node">
<title>AppComponent</title>
<polygon fill="#ffffb3" stroke="black" points="2351.94,-84.8 2246.06,-84.8 2246.06,-48.8 2351.94,-48.8 2351.94,-84.8"/>
<text text-anchor="middle" x="2299" y="-62.6" font-family="Times,serif" font-size="14.00">AppComponent</text>
</g>
<!-- AppModule -->
<g id="node14" class="node">
<title>AppModule</title>
<polygon fill="#8dd3c7" stroke="black" points="1395.66,-149.8 1392.66,-153.8 1371.66,-153.8 1368.66,-149.8 1312.34,-149.8 1312.34,-113.8 1395.66,-113.8 1395.66,-149.8"/>
<text text-anchor="middle" x="1354" y="-127.6" font-family="Times,serif" font-size="14.00">AppModule</text>
</g>
<!-- AppComponent&#45;&gt;AppModule -->
<g id="edge1" class="edge">
<title>AppComponent&#45;&gt;AppModule</title>
<path fill="none" stroke="black" d="M2299,-84.84C2299,-106.46 2299,-139.8 2299,-139.8 2299,-139.8 1405.82,-139.8 1405.82,-139.8"/>
<polygon fill="black" stroke="black" points="1405.82,-136.3 1395.82,-139.8 1405.82,-143.3 1405.82,-136.3"/>
</g>
<!-- AuthenticateCredentialsComponent -->
<g id="node2" class="node">
<title>AuthenticateCredentialsComponent</title>
<polygon fill="#ffffb3" stroke="black" points="2228.12,-84.8 2011.88,-84.8 2011.88,-48.8 2228.12,-48.8 2228.12,-84.8"/>
<text text-anchor="middle" x="2120" y="-62.6" font-family="Times,serif" font-size="14.00">AuthenticateCredentialsComponent</text>
</g>
<!-- AuthenticateCredentialsComponent&#45;&gt;AppModule -->
<g id="edge2" class="edge">
<title>AuthenticateCredentialsComponent&#45;&gt;AppModule</title>
<path fill="none" stroke="black" d="M2120,-85.02C2120,-105.17 2120,-134.8 2120,-134.8 2120,-134.8 1405.73,-134.8 1405.73,-134.8"/>
<polygon fill="black" stroke="black" points="1405.73,-131.3 1395.73,-134.8 1405.73,-138.3 1405.73,-131.3"/>
</g>
<!-- ButtonComponent -->
<g id="node3" class="node">
<title>ButtonComponent</title>
<polygon fill="#ffffb3" stroke="black" points="1993.95,-84.8 1874.05,-84.8 1874.05,-48.8 1993.95,-48.8 1993.95,-84.8"/>
<text text-anchor="middle" x="1934" y="-62.6" font-family="Times,serif" font-size="14.00">ButtonComponent</text>
</g>
<!-- ButtonComponent&#45;&gt;AppModule -->
<g id="edge3" class="edge">
<title>ButtonComponent&#45;&gt;AppModule</title>
<path fill="none" stroke="black" d="M1934,-85.02C1934,-103.63 1934,-129.8 1934,-129.8 1934,-129.8 1405.71,-129.8 1405.71,-129.8"/>
<polygon fill="black" stroke="black" points="1405.71,-126.3 1395.71,-129.8 1405.71,-133.3 1405.71,-126.3"/>
</g>
<!-- CreateCredentialsComponent -->
<g id="node4" class="node">
<title>CreateCredentialsComponent</title>
<polygon fill="#ffffb3" stroke="black" points="1855.62,-84.8 1674.38,-84.8 1674.38,-48.8 1855.62,-48.8 1855.62,-84.8"/>
<text text-anchor="middle" x="1765" y="-62.6" font-family="Times,serif" font-size="14.00">CreateCredentialsComponent</text>
</g>
<!-- CreateCredentialsComponent&#45;&gt;AppModule -->
<g id="edge4" class="edge">
<title>CreateCredentialsComponent&#45;&gt;AppModule</title>
<path fill="none" stroke="black" d="M1765,-84.83C1765,-101.86 1765,-124.8 1765,-124.8 1765,-124.8 1405.67,-124.8 1405.67,-124.8"/>
<polygon fill="black" stroke="black" points="1405.67,-121.3 1395.67,-124.8 1405.67,-128.3 1405.67,-121.3"/>
</g>
<!-- HeaderComponent -->
<g id="node5" class="node">
<title>HeaderComponent</title>
<polygon fill="#ffffb3" stroke="black" points="1655.74,-84.8 1534.26,-84.8 1534.26,-48.8 1655.74,-48.8 1655.74,-84.8"/>
<text text-anchor="middle" x="1595" y="-62.6" font-family="Times,serif" font-size="14.00">HeaderComponent</text>
</g>
<!-- HeaderComponent&#45;&gt;AppModule -->
<g id="edge5" class="edge">
<title>HeaderComponent&#45;&gt;AppModule</title>
<path fill="none" stroke="black" d="M1595,-85.04C1595,-100.37 1595,-119.8 1595,-119.8 1595,-119.8 1405.7,-119.8 1405.7,-119.8"/>
<polygon fill="black" stroke="black" points="1405.7,-116.3 1395.7,-119.8 1405.7,-123.3 1405.7,-116.3"/>
</g>
<!-- LogInPageComponent -->
<g id="node6" class="node">
<title>LogInPageComponent</title>
<polygon fill="#ffffb3" stroke="black" points="1516.26,-84.8 1373.74,-84.8 1373.74,-48.8 1516.26,-48.8 1516.26,-84.8"/>
<text text-anchor="middle" x="1445" y="-62.6" font-family="Times,serif" font-size="14.00">LogInPageComponent</text>
</g>
<!-- LogInPageComponent&#45;&gt;AppModule -->
<g id="edge6" class="edge">
<title>LogInPageComponent&#45;&gt;AppModule</title>
<path fill="none" stroke="black" d="M1384.72,-84.91C1384.72,-84.91 1384.72,-103.79 1384.72,-103.79"/>
<polygon fill="black" stroke="black" points="1381.22,-103.79 1384.72,-113.79 1388.22,-103.79 1381.22,-103.79"/>
</g>
<!-- MainAccountPageComponent -->
<g id="node7" class="node">
<title>MainAccountPageComponent</title>
<polygon fill="#ffffb3" stroke="black" points="1355.52,-84.8 1170.48,-84.8 1170.48,-48.8 1355.52,-48.8 1355.52,-84.8"/>
<text text-anchor="middle" x="1263" y="-62.6" font-family="Times,serif" font-size="14.00">MainAccountPageComponent</text>
</g>
<!-- MainAccountPageComponent&#45;&gt;AppModule -->
<g id="edge7" class="edge">
<title>MainAccountPageComponent&#45;&gt;AppModule</title>
<path fill="none" stroke="black" d="M1333.97,-84.91C1333.97,-84.91 1333.97,-103.79 1333.97,-103.79"/>
<polygon fill="black" stroke="black" points="1330.47,-103.79 1333.97,-113.79 1337.47,-103.79 1330.47,-103.79"/>
</g>
<!-- MoneyAccountPageComponent -->
<g id="node8" class="node">
<title>MoneyAccountPageComponent</title>
<polygon fill="#ffffb3" stroke="black" points="1151.63,-84.8 956.37,-84.8 956.37,-48.8 1151.63,-48.8 1151.63,-84.8"/>
<text text-anchor="middle" x="1054" y="-62.6" font-family="Times,serif" font-size="14.00">MoneyAccountPageComponent</text>
</g>
<!-- MoneyAccountPageComponent&#45;&gt;AppModule -->
<g id="edge8" class="edge">
<title>MoneyAccountPageComponent&#45;&gt;AppModule</title>
<path fill="none" stroke="black" d="M1054,-85.04C1054,-100.37 1054,-119.8 1054,-119.8 1054,-119.8 1302.29,-119.8 1302.29,-119.8"/>
<polygon fill="black" stroke="black" points="1302.29,-123.3 1312.29,-119.8 1302.29,-116.3 1302.29,-123.3"/>
</g>
<!-- SideBarComponent -->
<g id="node9" class="node">
<title>SideBarComponent</title>
<polygon fill="#ffffb3" stroke="black" points="938.43,-84.8 811.57,-84.8 811.57,-48.8 938.43,-48.8 938.43,-84.8"/>
<text text-anchor="middle" x="875" y="-62.6" font-family="Times,serif" font-size="14.00">SideBarComponent</text>
</g>
<!-- SideBarComponent&#45;&gt;AppModule -->
<g id="edge9" class="edge">
<title>SideBarComponent&#45;&gt;AppModule</title>
<path fill="none" stroke="black" d="M875,-84.83C875,-101.86 875,-124.8 875,-124.8 875,-124.8 1302.33,-124.8 1302.33,-124.8"/>
<polygon fill="black" stroke="black" points="1302.33,-128.3 1312.33,-124.8 1302.33,-121.3 1302.33,-128.3"/>
</g>
<!-- SignUpPageComponent -->
<g id="node10" class="node">
<title>SignUpPageComponent</title>
<polygon fill="#ffffb3" stroke="black" points="793.82,-84.8 642.18,-84.8 642.18,-48.8 793.82,-48.8 793.82,-84.8"/>
<text text-anchor="middle" x="718" y="-62.6" font-family="Times,serif" font-size="14.00">SignUpPageComponent</text>
</g>
<!-- SignUpPageComponent&#45;&gt;AppModule -->
<g id="edge10" class="edge">
<title>SignUpPageComponent&#45;&gt;AppModule</title>
<path fill="none" stroke="black" d="M718,-85.02C718,-103.63 718,-129.8 718,-129.8 718,-129.8 1302.27,-129.8 1302.27,-129.8"/>
<polygon fill="black" stroke="black" points="1302.27,-133.3 1312.27,-129.8 1302.27,-126.3 1302.27,-133.3"/>
</g>
<!-- TransactionHistoryPageComponent -->
<g id="node11" class="node">
<title>TransactionHistoryPageComponent</title>
<polygon fill="#ffffb3" stroke="black" points="624.12,-84.8 407.88,-84.8 407.88,-48.8 624.12,-48.8 624.12,-84.8"/>
<text text-anchor="middle" x="516" y="-62.6" font-family="Times,serif" font-size="14.00">TransactionHistoryPageComponent</text>
</g>
<!-- TransactionHistoryPageComponent&#45;&gt;AppModule -->
<g id="edge11" class="edge">
<title>TransactionHistoryPageComponent&#45;&gt;AppModule</title>
<path fill="none" stroke="black" d="M516,-85.02C516,-105.17 516,-134.8 516,-134.8 516,-134.8 1302.16,-134.8 1302.16,-134.8"/>
<polygon fill="black" stroke="black" points="1302.16,-138.3 1312.16,-134.8 1302.16,-131.3 1302.16,-138.3"/>
</g>
<!-- TransactionItemComponent -->
<g id="node12" class="node">
<title>TransactionItemComponent</title>
<polygon fill="#ffffb3" stroke="black" points="389.57,-84.8 216.43,-84.8 216.43,-48.8 389.57,-48.8 389.57,-84.8"/>
<text text-anchor="middle" x="303" y="-62.6" font-family="Times,serif" font-size="14.00">TransactionItemComponent</text>
</g>
<!-- TransactionItemComponent&#45;&gt;AppModule -->
<g id="edge12" class="edge">
<title>TransactionItemComponent&#45;&gt;AppModule</title>
<path fill="none" stroke="black" d="M303,-84.84C303,-106.46 303,-139.8 303,-139.8 303,-139.8 1302.15,-139.8 1302.15,-139.8"/>
<polygon fill="black" stroke="black" points="1302.15,-143.3 1312.15,-139.8 1302.15,-136.3 1302.15,-143.3"/>
</g>
<!-- TransactionPageComponent -->
<g id="node13" class="node">
<title>TransactionPageComponent</title>
<polygon fill="#ffffb3" stroke="black" points="198.13,-84.8 23.87,-84.8 23.87,-48.8 198.13,-48.8 198.13,-84.8"/>
<text text-anchor="middle" x="111" y="-62.6" font-family="Times,serif" font-size="14.00">TransactionPageComponent</text>
</g>
<!-- TransactionPageComponent&#45;&gt;AppModule -->
<g id="edge13" class="edge">
<title>TransactionPageComponent&#45;&gt;AppModule</title>
<path fill="none" stroke="black" d="M111,-84.89C111,-107.93 111,-144.8 111,-144.8 111,-144.8 1302.29,-144.8 1302.29,-144.8"/>
<polygon fill="black" stroke="black" points="1302.29,-148.3 1312.29,-144.8 1302.29,-141.3 1302.29,-148.3"/>
</g>
<!-- AppComponent  -->
<g id="node16" class="node">
<title>AppComponent </title>
<polygon fill="#80b1d3" stroke="black" points="1408.44,-214.8 1299.56,-214.8 1299.56,-178.8 1408.44,-178.8 1408.44,-214.8"/>
<text text-anchor="middle" x="1354" y="-192.6" font-family="Times,serif" font-size="14.00">AppComponent </text>
</g>
<!-- AppModule&#45;&gt;AppComponent  -->
<g id="edge15" class="edge">
<title>AppModule&#45;&gt;AppComponent </title>
<path fill="none" stroke="black" stroke-dasharray="1,5" d="M1354,-149.91C1354,-149.91 1354,-168.79 1354,-168.79"/>
<polygon fill="black" stroke="black" points="1350.5,-168.79 1354,-178.79 1357.5,-168.79 1350.5,-168.79"/>
</g>
<!-- AppRoutingModule -->
<g id="node15" class="node">
<title>AppRoutingModule</title>
<polygon fill="#8dd3c7" stroke="black" points="2504.27,-84.8 2501.27,-88.8 2480.27,-88.8 2477.27,-84.8 2375.73,-84.8 2375.73,-48.8 2504.27,-48.8 2504.27,-84.8"/>
<text text-anchor="middle" x="2440" y="-62.6" font-family="Times,serif" font-size="14.00">AppRoutingModule</text>
</g>
<!-- AppRoutingModule&#45;&gt;AppModule -->
<g id="edge14" class="edge">
<title>AppRoutingModule&#45;&gt;AppModule</title>
<path fill="none" stroke="black" d="M2440,-84.89C2440,-107.93 2440,-144.8 2440,-144.8 2440,-144.8 1405.91,-144.8 1405.91,-144.8"/>
<polygon fill="black" stroke="black" points="1405.91,-141.3 1395.91,-144.8 1405.91,-148.3 1405.91,-141.3"/>
</g>
</g>
</svg>
